<?xml version="1.0" encoding="UTF-8" standalone="no"?>
<!-- Created with Inkscape (http://www.inkscape.org/) -->

<svg
   xmlns:dc="http://purl.org/dc/elements/1.1/"
   xmlns:cc="http://creativecommons.org/ns#"
   xmlns:rdf="http://www.w3.org/1999/02/22-rdf-syntax-ns#"
   xmlns:svg="http://www.w3.org/2000/svg"
   xmlns="http://www.w3.org/2000/svg"
   xmlns:sodipodi="http://sodipodi.sourceforge.net/DTD/sodipodi-0.dtd"
   xmlns:inkscape="http://www.inkscape.org/namespaces/inkscape"
   width="210mm"
   height="297mm"
   viewBox="0 0 210 297"
   version="1.1"
   id="svg8"
   inkscape:version="0.92.3 (2405546, 2018-03-11)"
   sodipodi:docname="youMeAndTea.svg">
  <defs
     id="defs2" />
  <sodipodi:namedview
     id="base"
     pagecolor="#ffffff"
     bordercolor="#666666"
     borderopacity="1.0"
     inkscape:pageopacity="0.0"
     inkscape:pageshadow="2"
     inkscape:zoom="0.98994949"
     inkscape:cx="321.33335"
     inkscape:cy="970.31063"
     inkscape:document-units="mm"
     inkscape:current-layer="layer1"
     showgrid="false"
     inkscape:pagecheckerboard="true"
     inkscape:window-width="1366"
     inkscape:window-height="705"
     inkscape:window-x="-8"
     inkscape:window-y="-8"
     inkscape:window-maximized="1" />
  <metadata
     id="metadata5">
    <rdf:RDF>
      <cc:Work
         rdf:about="">
        <dc:format>image/svg+xml</dc:format>
        <dc:type
           rdf:resource="http://purl.org/dc/dcmitype/StillImage" />
        <dc:title></dc:title>
      </cc:Work>
    </rdf:RDF>
  </metadata>
  <g
     inkscape:label="Layer 1"
     inkscape:groupmode="layer"
     id="layer1">
    <path
       style="fill:#000000;stroke-width:0.26458332"
       d="m 45.311741,88.245936 c -3.7131,-1.831869 -5.54336,-3.937669 -5.54336,-6.3779 0,-3.152514 1.75427,-5.730922 4.91788,-7.228265 2.00138,-0.947255 2.36635,-1.336314 3.10281,-3.30753 0.47803,-1.279526 0.78818,-1.679791 1.80613,-2.330903 1.11749,-0.714786 1.40391,-0.779236 3.15716,-0.71042 l 1.92817,0.07568 5.29964,-5.285405 c 2.9148,-2.906972 5.46442,-5.595786 5.66581,-5.975142 0.33991,-0.640258 0.31964,-0.714643 -0.2825,-1.036897 -0.75232,-0.402632 -0.79896,-0.597383 -0.25179,-1.05149 0.32504,-0.269761 0.39687,-0.251681 0.39687,0.0999 0,0.553019 0.68733,0.55907 0.89883,0.0079 0.10786,-0.28109 -0.0148,-0.467521 -0.36857,-0.560025 -0.63482,-0.166011 -0.67161,-0.424012 -0.12511,-0.877562 0.33396,-0.277166 0.46516,-0.254154 0.74678,0.130977 0.31885,0.436056 0.39683,0.438674 1.16922,0.03926 1.26318,-0.653218 2.2312,-0.543967 3.08604,0.348287 0.64052,0.668562 0.71846,0.910749 0.56179,1.745836 -0.1162,0.619401 -0.0868,0.910846 0.0813,0.80694 0.45152,-0.279053 0.61887,0.358397 0.20322,0.774051 -0.46654,0.46654 -0.96181,0.516934 -0.96181,0.09787 0,-0.205185 -0.12267,-0.195172 -0.39688,0.0324 -0.21828,0.181158 -0.39687,0.433861 -0.39687,0.561564 0,0.127702 0.17859,0.232186 0.39687,0.232186 0.51566,0 0.50637,0.373504 -0.0202,0.810486 -0.34393,0.285442 -0.4552,0.284362 -0.63475,-0.0062 -0.35497,-0.574347 -0.94438,-0.148956 -2.62377,1.893635 -1.40637,1.710523 -6.33113,6.543839 -8.69015,8.528793 l -0.85634,0.720551 0.92256,1.208239 c 1.12565,1.474223 1.5558,2.954306 1.31849,4.536777 -0.18314,1.221247 -0.77978,1.974432 -2.75224,3.474344 -0.94406,0.717891 -1.31476,1.915258 -1.33648,4.316873 -0.0136,1.505593 -0.27923,2.09105 -1.55337,3.423891 -1.15849,1.211858 -3.27573,2.051394 -5.14881,2.041628 -1.08491,-0.0057 -1.87781,-0.253209 -3.71658,-1.160373 z m 6.42425,-0.06478 c 1.40675,-0.573207 2.67852,-1.657607 3.08502,-2.630495 0.20284,-0.485469 0.3688,-1.60469 0.3688,-2.487163 0,-2.139405 0.48303,-3.178466 2.02326,-4.352277 0.70622,-0.53821 1.44278,-1.279086 1.63681,-1.646389 0.50705,-0.959874 0.4344,-2.776762 -0.15715,-3.929804 l -0.50992,-0.993949 0.12282,1.481065 c 0.1042,1.256508 0.0168,1.662035 -0.57666,2.674644 -0.38472,0.656468 -1.21815,1.550428 -1.85207,1.986578 -1.40295,0.96525 -1.48084,1.152461 -1.48084,3.559196 0,3.250592 -1.40256,5.325155 -4.41655,6.5326 l -1.27199,0.509577 1.05833,-0.166026 c 0.58209,-0.09132 1.46865,-0.333217 1.97014,-0.537557 z m -0.91324,-0.969806 c 0.58886,-0.323893 1.44186,-1.153097 1.91967,-1.866115 0.75809,-1.131284 0.85989,-1.494268 0.85989,-3.065907 0,-1.76902 0.36584,-3.32419 0.90823,-3.860884 0.15532,-0.153689 0.67757,-0.510876 1.16057,-0.79375 1.22528,-0.717613 1.99149,-2.061904 2.01381,-3.533175 0.0178,-1.175197 -0.51617,-2.934271 -0.89076,-2.934271 -0.10094,0 -1.039,1.068394 -2.08456,2.374209 -1.52315,1.902267 -1.90104,2.553693 -1.90104,3.277142 0,1.833224 -3.07171,5.357694 -5.11677,5.870972 -0.89638,0.224978 -1.2735,0.855793 -0.88424,1.479098 0.16084,0.257546 0.21055,0.550151 0.11047,0.650237 -0.25157,0.251564 -3.14568,-2.259756 -2.95666,-2.565593 0.0839,-0.135728 0.25382,-0.184174 0.37763,-0.107651 0.3631,0.224407 1.25047,-1.1011 1.45033,-2.166411 0.41158,-2.19392 2.30837,-4.469972 4.26262,-5.114933 0.60895,-0.200971 1.42317,-0.97853 2.70952,-2.587502 1.01143,-1.265106 2.52762,-3.133631 3.36931,-4.152277 l 1.53034,-1.852083 -1.43408,1.350642 -1.43409,1.350643 -1.85209,-0.104326 c -2.61889,-0.14752 -3.71692,0.504659 -4.6302,2.750149 -0.83297,2.047996 -1.33248,2.587473 -3.3073,3.571891 -3.04653,1.518653 -4.6302,3.749931 -4.6302,6.523614 0,2.520153 2.6573,5.199398 6.20608,6.257314 1.23691,0.368734 2.66825,0.115411 4.24352,-0.751033 z m -4.36419,-4.280144 c 0.18985,-0.228756 0.21557,-0.396875 0.0607,-0.396875 -0.14777,0 -0.33721,0.178594 -0.42097,0.396875 -0.0838,0.218281 -0.11108,0.396875 -0.0607,0.396875 0.0504,0 0.23981,-0.178594 0.42096,-0.396875 z m -0.54871,-0.505611 c 0.19982,-0.240778 0.21604,-0.431281 0.0457,-0.536577 -0.14529,-0.08979 -0.39338,0.0782 -0.55132,0.373319 -0.32664,0.61033 0.0371,0.727781 0.50565,0.163258 z m 3.84182,-3.433 c 1.25363,-1.584153 2.21417,-2.945435 2.13453,-3.02507 -0.17837,-0.17837 -0.19628,-0.158192 -2.27817,2.566388 -0.93184,1.21951 -1.92528,2.516907 -2.20764,2.883104 -0.28235,0.366199 -0.38167,0.618575 -0.2207,0.560835 0.16096,-0.05774 1.31836,-1.401104 2.57198,-2.985257 z m 1.40325,0.104539 c 1.08614,-1.568452 1.38167,-2.259046 0.88794,-2.074956 -0.26976,0.100582 -3.73221,4.384462 -3.73221,4.617634 0,0.51866 1.90141,-1.181137 2.84427,-2.542678 z m -3.07349,0.714349 c 0.67429,-0.903528 1.6742,-2.210525 2.22202,-2.904439 0.54781,-0.693915 0.93888,-1.318803 0.86905,-1.388641 -0.12958,-0.129571 -4.71394,5.509811 -4.71394,5.798771 0,0.454549 0.52002,-0.02792 1.62287,-1.505691 z m 1.32422,-3.428714 c 0.749,-1.031117 0.15753,-0.901679 -1.1092,0.24274 -0.91031,0.822409 -1.86795,2.377153 -1.82603,2.96457 0.0141,0.198131 2.18309,-2.171869 2.93523,-3.20731 z m 5.11242,-3.373438 1.76452,-2.248958 -1.99798,2.116666 c -1.8392,1.948447 -2.37347,2.694636 -1.76814,2.469445 0.13039,-0.04851 1.03111,-1.100226 2.0016,-2.337153 z m 10.2359,-12.798084 c 1.80267,-2.017529 2.40668,-3.239808 0.71386,-1.444587 -3.55009,3.764835 -9.21968,9.966253 -9.21968,10.084505 0,0.162557 6.93402,-6.880781 8.50582,-8.639918 z m -5.85999,7.903292 c 0.49365,-0.509323 0.83802,-0.926041 0.76526,-0.926041 -0.0728,0 -0.53619,0.416718 -1.02984,0.926041 -0.49366,0.509323 -0.83803,0.926042 -0.76527,0.926042 0.0728,0 0.53619,-0.416719 1.02985,-0.926042 z m 5.55625,-4.808492 c 0.94588,-0.998813 2.1255,-2.290038 2.62137,-2.86939 0.49587,-0.579352 1.14171,-1.321259 1.43519,-1.64868 0.29347,-0.327422 0.47531,-0.595313 0.40408,-0.595313 -0.0712,0 -1.72636,1.685531 -3.67806,3.745625 -1.95171,2.060093 -3.31316,3.619209 -3.02546,3.464702 0.2877,-0.154507 1.29699,-1.098132 2.24288,-2.096944 z m 0.0338,-1.607654 c 0.32911,-0.419644 0.31975,-0.429002 -0.0999,-0.09989 -0.25466,0.199719 -0.46302,0.408078 -0.46302,0.46302 0,0.217761 0.21728,0.0776 0.56292,-0.363126 z m 5.24217,-4.296831 c 0.20962,-0.09501 0.43331,-0.329303 0.49709,-0.520652 0.0719,-0.215749 -0.30472,-0.111465 -0.9915,0.274527 -1.40601,0.790222 -2.05643,1.509372 -0.78898,0.872346 0.49624,-0.249412 1.07377,-0.531211 1.28339,-0.626221 z m -0.0755,-0.924791 c 1.28903,-0.440798 1.54219,-1.454236 0.52909,-2.118044 -0.94537,-0.619431 -2.45814,-0.212244 -2.33662,0.628941 0.0471,0.325946 -0.0946,0.867601 -0.31476,1.20368 -0.22021,0.336079 -0.33253,0.870519 -0.2496,1.187644 l 0.15079,0.576592 0.60191,-0.565472 c 0.33106,-0.31101 1.05969,-0.722013 1.61919,-0.913341 z m -2.45061,-0.554705 c 0.28012,-0.72998 0.18446,-0.989004 -0.23628,-0.639819 -0.43311,0.359454 -0.53917,1.058334 -0.1606,1.058334 0.12995,0 0.30855,-0.188332 0.39688,-0.418515 z"
       id="path839"
       inkscape:connector-curvature="0"
       inkscape:export-xdpi="96"
       inkscape:export-ydpi="96" />
    <path
       style="fill:#000000;stroke-width:0.26458332"
       d="m 113.03017,69.216521 c -0.79614,-0.796143 -0.68317,-2.003364 0.27736,-2.963893 0.69568,-0.695684 0.94723,-0.787648 1.83044,-0.669185 0.88546,0.118764 1.04289,0.06063 1.16416,-0.429896 0.16457,-0.665704 0.7766,-6.057601 0.8077,-7.115671 0.027,-0.919904 0.51718,-0.936491 1.80544,-0.0611 1.38509,0.941195 1.59406,1.442317 1.2062,2.892504 -0.26775,1.001076 -0.42782,1.203488 -0.95172,1.203488 -0.58353,0 -0.61726,-0.07449 -0.4587,-1.012993 0.12951,-0.766551 0.0659,-1.100344 -0.26149,-1.372049 -0.63325,-0.525546 -0.81034,-0.09036 -1.17279,2.882 -0.69869,5.729726 -0.74835,5.951533 -1.47337,6.580646 -0.84966,0.737259 -2.07294,0.766436 -2.77323,0.06615 z m 18.22851,-2.811544 c -0.51319,-0.618358 -0.45117,-2.379191 0.10334,-2.933694 0.28355,-0.283555 0.8657,-0.460443 1.51534,-0.460443 h 1.05489 v -1.906413 c 0,-1.58402 -0.0783,-1.930927 -0.46302,-2.051371 -0.67016,-0.209808 -5.47815,-1.181468 -5.54002,-1.119598 -0.0287,0.02872 -0.15689,1.627798 -0.28482,3.553517 -0.22238,3.347445 -0.26591,3.536078 -0.99062,4.292511 -1.25651,1.311516 -2.73554,0.92117 -3.17444,-0.8378 -0.44938,-1.800974 1.77241,-3.35876 3.0899,-2.166449 0.46679,0.422441 0.48386,0.291823 0.48386,-3.704167 0,-2.278127 0.0509,-4.142049 0.1132,-4.142049 0.0623,0 1.22311,0.297356 2.57968,0.660792 1.35657,0.363435 3.00426,0.661091 3.66153,0.661458 l 1.19503,6.67e-4 -0.0806,4.818958 c -0.0668,3.988719 -0.15435,4.9004 -0.50844,5.291667 -0.54951,0.607205 -2.26412,0.633604 -2.75477,0.04241 z"
       id="path852"
       inkscape:connector-curvature="0"
       inkscape:export-xdpi="96"
       inkscape:export-ydpi="96" />
    <path
       style="fill:#000000;stroke-width:0.26458335"
       d="m 62.895178,41.994573 c -2.65734,-0.1188 -3.51528,-0.257471 -4.36563,-0.705625 -0.58208,-0.306774 -1.38232,-0.635601 -1.7783,-0.730729 -0.39598,-0.09513 -0.85093,-0.417663 -1.01099,-0.716746 -0.69473,-1.298104 1.26736,-2.432955 4.81199,-2.783202 l 1.75812,-0.173723 -0.90322,-1.777913 c -0.92633,-1.823387 -1.61292,-4.674143 -1.69032,-7.018253 -0.0647,-1.960124 -0.0753,-1.933933 0.99553,-2.474617 4.17195,-2.10659 10.47902,-1.898821 13.5599,0.446694 0.69551,0.529499 1.23448,0.705833 2.16503,0.708326 3.25902,0.0087 3.55149,3.310214 0.57513,6.492191 -0.69315,0.741034 -1.40063,1.755585 -1.57217,2.254557 l -0.31188,0.907225 h 2.42034 c 2.5329,0 3.90661,0.434681 4.51512,1.428715 0.2256,0.368538 0.11349,0.589151 -0.59284,1.166532 -0.47908,0.391626 -1.50262,1.277591 -2.27452,1.968815 l -1.40347,1.256771 -5.79526,-0.05058 c -3.1874,-0.02782 -7.28355,-0.117118 -9.10256,-0.198438 z m 15.08611,-0.960908 0.54821,-0.548466 -2.06248,0.362355 c -1.5007,0.263657 -4.0588,0.340979 -9.39177,0.283882 -4.03111,-0.04316 -7.24319,0.0075 -7.13794,0.112549 0.22267,0.222268 6.09704,0.386503 12.80651,0.358039 4.37724,-0.01857 4.72575,-0.05639 5.23747,-0.568359 z m -0.13716,-1.002721 c 4.7151,-1.265658 4.55134,-2.856899 -0.31267,-3.038226 l -2.45439,-0.0915 -1.09399,0.936416 c -1.8529,1.586016 -3.27705,2.137564 -5.53165,2.14231 -2.19043,0.0046 -3.21929,-0.385103 -4.68326,-1.773938 -0.83035,-0.787726 -0.88423,-0.799862 -2.77231,-0.624385 -2.39201,0.222313 -3.77914,0.626512 -4.36259,1.271222 -0.41312,0.456488 -0.41507,0.531331 -0.024,0.922372 0.57247,0.572476 5.57468,0.85094 13.56197,0.754973 4.57264,-0.05494 6.48006,-0.179052 7.67292,-0.499248 z m -18.9177,-0.168603 c 0,-0.334542 0.54066,-0.334542 1.05833,0 0.30926,0.199861 0.23626,0.257373 -0.33073,0.260532 -0.40018,0.0022 -0.7276,-0.115011 -0.7276,-0.260532 z m 15.08125,-0.203274 c 0,-0.145336 0.74414,-0.346419 1.65364,-0.446855 0.90951,-0.100436 2.01084,-0.337828 2.4474,-0.527542 l 0.79375,-0.344932 -0.79375,-0.344265 c -0.77264,-0.335111 -0.77702,-0.347136 -0.16458,-0.452163 0.7419,-0.127227 1.49345,0.518803 1.27272,1.094023 -0.25155,0.655511 -5.20918,1.627907 -5.20918,1.021734 z m -15.34584,-0.603978 c 0,-0.430892 1.72292,-1.048081 2.83578,-1.015841 l 1.00068,0.02899 -1.15881,0.227658 c -0.63734,0.125211 -1.43682,0.409824 -1.77663,0.632468 -0.72898,0.477647 -0.90102,0.501846 -0.90102,0.126727 z m 12.05667,-0.111191 c 1.79025,-0.534109 3.14485,-1.720411 3.71165,-3.250533 0.26467,-0.714494 1.07079,-1.901041 1.87176,-2.755092 0.77378,-0.825061 1.52662,-1.815077 1.67298,-2.200037 0.39717,-1.044654 0.32202,-2.281829 -0.17177,-2.827458 -0.48442,-0.53527 -1.67684,-0.644554 -2.1265,-0.19489 -0.15893,0.15893 -0.62923,0.32773 -1.0451,0.37511 -0.41588,0.04738 -1.64911,0.228463 -2.74052,0.402406 -2.63229,0.419522 -8.02439,0.147513 -9.9478,-0.501826 l -1.42928,-0.482524 v 0.836383 c 0,4.693575 2.68049,9.418943 6.01873,10.610243 1.30986,0.467442 2.59165,0.463836 4.18585,-0.01177 z m 3.70005,-5.938052 c -0.3595,-0.581694 -0.27751,-3.382225 0.11279,-3.852513 0.61394,-0.739746 1.27764,-0.978447 1.85758,-0.668076 0.79031,0.422961 0.65698,1.549681 -0.3333,2.816707 -0.47153,0.603303 -0.98501,1.310765 -1.14106,1.572137 -0.2199,0.368317 -0.33148,0.397954 -0.49601,0.131745 z m 1.70447,-3.528401 c 0.002,-0.578568 -0.2189,-0.585186 -0.83775,-0.02514 -0.27614,0.249901 -0.47977,0.789427 -0.47434,1.256771 l 0.01,0.818888 0.65063,-0.79375 c 0.35786,-0.43656 0.65124,-1.002107 0.65196,-1.256769 z m -1.99557,-2.294872 c 0.16018,-0.259176 -0.76852,-0.995385 -2.13693,-1.694003 -0.45458,-0.232081 -1.90559,-0.560351 -3.22446,-0.72949 -2.0362,-0.261132 -2.68338,-0.243064 -4.29004,0.119767 -2.38456,0.5385 -4.41058,1.411688 -4.06871,1.753558 0.1596,0.159594 0.84771,0.01136 1.87673,-0.404273 3.16264,-1.277447 8.13303,-1.029896 10.38194,0.517074 1.0623,0.730725 1.24616,0.785749 1.46147,0.437367 z m -10.93491,-4.192291 c -0.92653,-1.731242 -0.57626,-3.513575 1.20224,-6.117487 1.43451,-2.100282 1.52098,-2.448092 1.33237,-5.359268 -0.0838,-1.294294 -0.0534,-2.2920177 0.0678,-2.2171637 0.12112,0.07485 0.3602,1.1222747 0.5313,2.3276017 0.37762,2.660274 0.16233,3.444036 -1.68303,6.12707 -1.19639,1.739477 -1.25575,1.909053 -1.15782,3.307292 0.0568,0.810593 0.19807,1.682165 0.31399,1.936826 0.28099,0.617281 -0.27623,0.612808 -0.6068,-0.0049 z m 7.90471,0.365844 c 0,-0.05613 0.17786,-0.443079 0.39524,-0.859896 0.63449,-1.216566 0.50896,-2.986005 -0.29584,-4.170384 -0.42816,-0.630084 -0.76818,-1.591907 -0.88692,-2.508814 -0.10591,-0.817841 -0.50667,-2.141827 -0.89056,-2.942192 -0.72905,-1.519949 -0.88769,-2.38125 -0.43859,-2.38125 0.14552,0 0.26495,0.148829 0.2654,0.33073 4.5e-4,0.181901 0.41717,1.15734 0.92604,2.167642 0.57631,1.144172 0.92523,2.218951 0.92523,2.849944 0,0.652845 0.24921,1.389619 0.70092,2.072195 0.91076,1.376245 1.1129,3.267373 0.48964,4.580792 -0.25141,0.529805 -0.62213,0.963281 -0.82383,0.963281 -0.2017,0 -0.36673,-0.04592 -0.36673,-0.102048 z m -4.25921,-1.004632 c -0.53682,-1.003069 -0.39346,-2.415529 0.42604,-4.197377 0.80893,-1.758883 1.00877,-3.596581 0.59566,-5.477714 -0.26515,-1.207353 0.17865,-1.075789 0.5498,0.162989 0.52301,1.745679 0.37187,3.354686 -0.51531,5.485786 -0.80246,1.927604 -0.89669,2.952075 -0.38087,4.140808 0.2948,0.679376 -0.30486,0.577711 -0.67532,-0.114492 z"
       id="path865"
       inkscape:connector-curvature="0"
       inkscape:export-xdpi="96"
       inkscape:export-ydpi="96" />
  </g>
</svg>
